<svg xmlns="http://www.w3.org/2000/svg" xml:space="preserve" fill-rule="evenodd" stroke-linejoin="round" stroke-miterlimit="2" clip-rule="evenodd" viewBox="0 0 600 600">
  <path fill="#5a00c2" d="m300 290 56 106 1-1-57-105 96 107 2-1-98-106h1l137 97 1-2v1l-138-96 174 74 1-2-175-72 198 47v-2l-198-45 213 18v-3l-213-15 221-15v-4l-221 19h-1 1-1 1-1 1-1 1-1l116-40 100-38c12 31 21 74 17 110a252 252 0 0 1-222 227c53-3 95-16 152-59 41-31 81-96 86-168 7-93-40-159-40-159L300 290Zm0 0Zm213-86c-3-9-7-18-11-24L300 290l115-44 98-42Zm10 33-223 53 223-48v-5Z"/>
  <circle cx="300" cy="300" r="90" fill="#5c00c6"/>
  <path fill="#5a00c2" d="M318 159c-6 0-13-3-18-7l-5 6c5 5 13 9 23 9 13 0 26-6 26-18s-8-16-20-19c-12-4-16-5-16-11 0-4 4-8 13-8 8 0 13 3 18 6l4-7c-5-4-12-7-22-7-13 0-23 7-23 17s8 14 21 17c13 4 14 7 14 12 0 6-5 10-15 10Zm-50-55h9v61h-9v-61Zm-22-1c-11 0-18 6-22 16v-16h-9v55h-3v7h15v-7h-3v-26c6-12 11-25 28-20v-7l-6-2Zm-60-17h-16v8h3v63h-3v8h16v-8h-3V94h3v-8Z"/>
  <path fill="#fff" d="M287 221c7 7-2 24-18 40s-32 25-40 17-1-27 15-43 35-22 43-14Z"/>
</svg>